{"accessors" : [{"bufferView" : 0, "byteOffset" : 0, "componentType" : 5123, "count" : 5814, "type" : "SCALAR", "max" : [2946], "min" : [0]}, {"bufferView" : 1, "byteOffset" : 0, "componentType" : 5126, "count" : 2947, "type" : "VEC3", "max" : [6.202478885650635, 2.185481071472168, 4.130860805511475], "min" : [-6.202478885650635, -0.8431869745254517, -4.630528926849365], "name" : "POSITION"}, {"bufferView" : 1, "byteOffset" : 12, "componentType" : 5126, "count" : 2947, "type" : "VEC2", "max" : [0, 1], "min" : [0, 1], "name" : "TEXCOORD_0"}, {"bufferView" : 1, "byteOffset" : 20, "componentType" : 5126, "count" : 2947, "type" : "VEC3", "max" : [1.0000044107437134, 1.0000044107437134, 1.0000044107437134], "min" : [-1.0000044107437134, -1.0000044107437134, -1.0000044107437134], "name" : "NORMAL"}, {"bufferView" : 0, "byteOffset" : 11628, "componentType" : 5123, "count" : 5664, "type" : "SCALAR", "max" : [2447], "min" : [0]}, {"bufferView" : 2, "byteOffset" : 0, "componentType" : 5126, "count" : 2448, "type" : "VEC3", "max" : [6.202478885650635, 2.185481071472168, 4.130860805511475], "min" : [-6.202478885650635, -0.389723002910614, -4.630528926849365], "name" : "POSITION"}, {"bufferView" : 2, "byteOffset" : 12, "componentType" : 5126, "count" : 2448, "type" : "VEC2", "max" : [0, 1], "min" : [0, 1], "name" : "TEXCOORD_0"}, {"bufferView" : 2, "byteOffset" : 20, "componentType" : 5126, "count" : 2448, "type" : "VEC3", "max" : [1.0000044107437134, 1.0000044107437134, 1.0000044107437134], "min" : [-1.0000044107437134, -1.0000044107437134, -1.0000044107437134], "name" : "NORMAL"}, {"bufferView" : 0, "byteOffset" : 22956, "componentType" : 5123, "count" : 12, "type" : "SCALAR", "max" : [7], "min" : [0]}, {"bufferView" : 3, "byteOffset" : 0, "componentType" : 5126, "count" : 8, "type" : "VEC3", "max" : [1.4553649425506592, 1.9455889463424683, -0.022955000400543213], "min" : [-1.4553649425506592, 1.9455889463424683, -0.21994100511074066], "name" : "POSITION"}, {"bufferView" : 3, "byteOffset" : 12, "componentType" : 5126, "count" : 8, "type" : "VEC2", "max" : [0, 1], "min" : [0, 1], "name" : "TEXCOORD_0"}, {"bufferView" : 3, "byteOffset" : 20, "componentType" : 5126, "count" : 8, "type" : "VEC3", "max" : [0, 1.0000044107437134, 0], "min" : [0, 1.0000044107437134, 0], "name" : "NORMAL"}, {"bufferView" : 0, "byteOffset" : 22980, "componentType" : 5123, "count" : 186, "type" : "SCALAR", "max" : [101], "min" : [0]}, {"bufferView" : 4, "byteOffset" : 0, "componentType" : 5126, "count" : 102, "type" : "VEC3", "max" : [1.5645840167999268, 1.6622339487075806, 0.786907970905304], "min" : [-1.5645840167999268, 0.366131991147995, -2.8289949893951416], "name" : "POSITION"}, {"bufferView" : 4, "byteOffset" : 12, "componentType" : 5126, "count" : 102, "type" : "VEC2", "max" : [0, 1], "min" : [0, 1], "name" : "TEXCOORD_0"}, {"bufferView" : 4, "byteOffset" : 20, "componentType" : 5126, "count" : 102, "type" : "VEC3", "max" : [0.9238806962966919, 0.9238806962966919, 1.0000044107437134], "min" : [-0.9238806962966919, -0.9238806962966919, -0.5425983667373657], "name" : "NORMAL"}, {"bufferView" : 0, "byteOffset" : 23352, "componentType" : 5123, "count" : 13224, "type" : "SCALAR", "max" : [7967], "min" : [0]}, {"bufferView" : 5, "byteOffset" : 0, "componentType" : 5126, "count" : 7968, "type" : "VEC3", "max" : [1.729627013206482, 2.5111749172210693, 1.5832359790802002], "min" : [-1.729627013206482, -0.784945011138916, -2.090636968612671], "name" : "POSITION"}, {"bufferView" : 5, "byteOffset" : 12, "componentType" : 5126, "count" : 7968, "type" : "VEC2", "max" : [0, 1], "min" : [0, 1], "name" : "TEXCOORD_0"}, {"bufferView" : 5, "byteOffset" : 20, "componentType" : 5126, "count" : 7968, "type" : "VEC3", "max" : [1.0000044107437134, 1.0000044107437134, 1.0000044107437134], "min" : [-1.0000044107437134, -1.0000044107437134, -1.0000044107437134], "name" : "NORMAL"}, {"bufferView" : 0, "byteOffset" : 49800, "componentType" : 5123, "count" : 126, "type" : "SCALAR", "max" : [57], "min" : [0]}, {"bufferView" : 6, "byteOffset" : 0, "componentType" : 5126, "count" : 58, "type" : "VEC3", "max" : [0.7430459856987, 1.6289550065994263, 2.8844239711761475], "min" : [-0.7430459856987, 0.6631619930267334, -0.801971971988678], "name" : "POSITION"}, {"bufferView" : 6, "byteOffset" : 12, "componentType" : 5126, "count" : 58, "type" : "VEC2", "max" : [0, 1], "min" : [0, 1], "name" : "TEXCOORD_0"}, {"bufferView" : 6, "byteOffset" : 20, "componentType" : 5126, "count" : 58, "type" : "VEC3", "max" : [0.9124953746795654, 0.6615222692489624, 0.9478239417076111], "min" : [-0.9124953746795654, 0.2694075405597687, -0.9624269008636475], "name" : "NORMAL"}, {"bufferView" : 0, "byteOffset" : 50052, "componentType" : 5123, "count" : 18, "type" : "SCALAR", "max" : [7], "min" : [0]}, {"bufferView" : 7, "byteOffset" : 0, "componentType" : 5126, "count" : 8, "type" : "VEC3", "max" : [0.1757120043039322, -0.3266269862651825, 0.8315250277519226], "min" : [-0.1757120043039322, -0.6780499815940857, 0.8315250277519226], "name" : "POSITION"}, {"bufferView" : 7, "byteOffset" : 12, "componentType" : 5126, "count" : 8, "type" : "VEC2", "max" : [0.9998999834060669, 0.9998999834060669], "min" : [9.999999747378752E-05, 0.00010001659393310547], "name" : "TEXCOORD_0"}, {"bufferView" : 7, "byteOffset" : 20, "componentType" : 5126, "count" : 8, "type" : "VEC3", "max" : [-0, -0, 1.0000044107437134], "min" : [-0, -0, 1.0000044107437134], "name" : "NORMAL"}], "asset" : {"generator" : "Aspose.3D 24.4.1", "version" : "2.0"}, "buffers" : [{"uri" : "data:application/octet-stream;base64,", "byteLength" : 483368}], "bufferViews" : [{"buffer" : 0, "byteOffset" : 0, "byteLength" : 50088, "target" : 34963}, {"buffer" : 0, "byteOffset" : 50092, "byteLength" : 94304, "byteStride" : 32, "target" : 34962}, {"buffer" : 0, "byteOffset" : 144400, "byteLength" : 78336, "byteStride" : 32, "target" : 34962}, {"buffer" : 0, "byteOffset" : 222740, "byteLength" : 256, "byteStride" : 32, "target" : 34962}, {"buffer" : 0, "byteOffset" : 223000, "byteLength" : 3264, "byteStride" : 32, "target" : 34962}, {"buffer" : 0, "byteOffset" : 226268, "byteLength" : 254976, "byteStride" : 32, "target" : 34962}, {"buffer" : 0, "byteOffset" : 481248, "byteLength" : 1856, "byteStride" : 32, "target" : 34962}, {"buffer" : 0, "byteOffset" : 483108, "byteLength" : 256, "byteStride" : 32, "target" : 34962}], "meshes" : [{"primitives" : [{"attributes" : {"POSITION" : 1, "TEXCOORD_0" : 2, "NORMAL" : 3}, "indices" : 0, "mode" : 4}, {"attributes" : {"POSITION" : 5, "TEXCOORD_0" : 6, "NORMAL" : 7}, "indices" : 4, "mode" : 4}, {"attributes" : {"POSITION" : 9, "TEXCOORD_0" : 10, "NORMAL" : 11}, "indices" : 8, "mode" : 4}, {"attributes" : {"POSITION" : 13, "TEXCOORD_0" : 14, "NORMAL" : 15}, "indices" : 12, "mode" : 4}, {"attributes" : {"POSITION" : 17, "TEXCOORD_0" : 18, "NORMAL" : 19}, "indices" : 16, "mode" : 4}, {"attributes" : {"POSITION" : 21, "TEXCOORD_0" : 22, "NORMAL" : 23}, "indices" : 20, "mode" : 4}, {"attributes" : {"POSITION" : 25, "TEXCOORD_0" : 26, "NORMAL" : 27}, "indices" : 24, "mode" : 4}], "name" : ""}], "nodes" : [{"mesh" : 0, "name" : "drone_costum_Cube"}], "scene" : 0, "scenes" : [{"nodes" : [0]}]}